<svg id="Capa_1" data-name="Capa 1" xmlns="http://www.w3.org/2000/svg" viewBox="0 0 200 200"><defs><style>.cls-1{fill:#add2e1;}.cls-2{fill:#aac88d;}.cls-3{fill:#efdcb9;}.cls-4{fill:#5e1e7f;}.cls-5{fill:#e9cd49;}.cls-6{fill:#061642;}</style></defs><path class="cls-1" d="M47.47,170.07a10.43,10.43,0,0,0,10.42,10.42h90.3a10.42,10.42,0,0,0,10.42-10.42V159.65H47.47Z"/><rect class="cls-2" x="47.47" y="34.62" width="111.14" height="125.03"/><path class="cls-1" d="M148.19,13.78H57.89A10.41,10.41,0,0,0,47.47,24.2V34.62H158.61V24.2a10.41,10.41,0,0,0-10.42-10.42"/><path class="cls-3" d="M138.47,188.82V178.75l-3.33-7.32A29.64,29.64,0,0,1,146,134.3V113.81a8.91,8.91,0,0,1,12.62-8.1V92.27l12.5,1.14L186.4,135l-13.2,35.08v18.75Z"/><path class="cls-4" d="M14.13,59.28v69.81H62.75l.37.73a11.24,11.24,0,0,0,20.1,0l.37-.73h48.62V59.28Z"/><path class="cls-5" d="M87.06,48.86A13.89,13.89,0,0,0,73.17,62.75,13.89,13.89,0,0,0,59.28,48.86H24.55v69.81h97.24V48.86Z"/><path class="cls-6" d="M83.59,81H101V75.77H83.59Zm0-10.41h27.78V65.36H83.59ZM35,81H52.33V75.77H35ZM62.75,65.36H35v5.21H62.75ZM156,24.2a7.83,7.83,0,0,0-7.82-7.82H57.89a7.82,7.82,0,0,0-7.81,7.82V32H156Zm0,13H50.08v9h9.2a16.48,16.48,0,0,1,13.89,7.62,16.5,16.5,0,0,1,13.89-7.62H124.4V56.67h10.42v75H85.18a13.84,13.84,0,0,1-24,0H50.08v25.36H130a32.21,32.21,0,0,1,13.43-24.13V113.81a11.54,11.54,0,0,1,11.52-11.52,10.32,10.32,0,0,1,1.11.06ZM132.76,172.5A32.33,32.33,0,0,1,130,162.26H50.08v7.81a7.81,7.81,0,0,0,7.81,7.81h77.32Zm-45.7-65.12a11.31,11.31,0,0,0-11,8.68h43.11v-8.68Zm32.13-5.21V51.46H87.06A11.3,11.3,0,0,0,75.78,62.75v43.9a16.44,16.44,0,0,1,11.28-4.48ZM64.36,126.48l1.09,2.17a8.62,8.62,0,0,0,15.44,0L82,126.48h47.63V61.88H124.4v59.39H21.94V61.88H16.73v64.6ZM27.15,116.06H70.26a11.3,11.3,0,0,0-11-8.68H27.15Zm0-13.89H59.28a16.48,16.48,0,0,1,11.29,4.48V62.75A11.31,11.31,0,0,0,59.28,51.46H27.15Zm160.66,36.46-11,29.28a15.6,15.6,0,0,0-1,5.45v15.46h-5.21V172.64a16.79,16.79,0,0,1,1.08-5.9l10.77-28.65a8.91,8.91,0,0,0,0-6.23l-12-32.71a5.55,5.55,0,0,0-4.71-3.62l-4.52-.41v9.06a11.53,11.53,0,0,1,5.21,9.63v32h-5.21V114.06a6.49,6.49,0,0,0-5.06-6.44,6.32,6.32,0,0,0-7.57,6.19v21.9l-1.18.77a27,27,0,0,0-9.9,33.87l3.56,7.84v10.63h-5.21v-5.73h-78a13,13,0,0,1-13-13V131.69H11.52v-75H21.94V46.25H44.87v-22a13,13,0,0,1,13-13h90.3a13,13,0,0,1,13,13V89.89l6.55.6a8.3,8.3,0,0,1,7,5.39l13,35.48a10.45,10.45,0,0,1,0,7.27m-87.37,34h5.21v-5.21h-5.21ZM92.62,21.59h20.84V26.8H92.62Z"/></svg>