<svg id="Capa_1" data-name="Capa 1" xmlns="http://www.w3.org/2000/svg" viewBox="0 0 200 200"><defs><style>.cls-1{fill:#8e7aaf;}.cls-2{fill:#aac88d;}.cls-3{fill:#c5b5d5;}.cls-4{fill:#5e1e7f;}.cls-5{fill:#add2e1;}.cls-6{fill:#7eb06d;}.cls-7{fill:#cd737b;}.cls-8{fill:#e9cd49;}.cls-9{fill:#061642;}</style></defs><path class="cls-1" d="M100,42.53a13.83,13.83,0,0,0,13.85-13.84,13.85,13.85,0,0,0-27.7,0A13.83,13.83,0,0,0,100,42.53"/><path class="cls-2" d="M91.69,39.77a13.84,13.84,0,0,1-5.54-11.08,14,14,0,0,1,.28-2.77h-7.2a6.94,6.94,0,0,0-6.92,6.92v6.93Z"/><path class="cls-2" d="M113.85,28.69a13.84,13.84,0,0,1-5.54,11.08h19.38V32.84a6.94,6.94,0,0,0-6.92-6.92h-7.2a14,14,0,0,1,.28,2.77"/><path class="cls-3" d="M66.38,62.57a9,9,0,1,0-17.92,0v4.48a9,9,0,0,0,17.92,0Z"/><path class="cls-2" d="M64.08,73a8.93,8.93,0,0,1-13.32,0,15.72,15.72,0,0,0-9,14.18v4.48H73.1V87.21a15.72,15.72,0,0,0-9-14.18"/><path class="cls-3" d="M66.38,114.5a9,9,0,1,0-17.92,0V119a9,9,0,0,0,17.92,0Z"/><path class="cls-4" d="M64.08,125a8.91,8.91,0,0,1-13.32,0,15.73,15.73,0,0,0-9,14.19v4.48H73.1v-4.48a15.73,15.73,0,0,0-9-14.19"/><path class="cls-3" d="M151.54,62.57a9,9,0,1,0-17.92,0v4.48a9,9,0,0,0,17.92,0Z"/><path class="cls-5" d="M149.24,73a8.93,8.93,0,0,1-13.32,0,15.72,15.72,0,0,0-9,14.18v4.48h31.36V87.21a15.72,15.72,0,0,0-9-14.18"/><path class="cls-3" d="M151.54,114.5a9,9,0,1,0-17.92,0V119a9,9,0,0,0,17.92,0Z"/><path class="cls-6" d="M149.24,125a8.91,8.91,0,0,1-13.32,0,15.73,15.73,0,0,0-9,14.19v4.48h31.36v-4.48a15.73,15.73,0,0,0-9-14.19"/><path class="cls-1" d="M100,143.62H14.84v6.92a7,7,0,0,0,6.92,6.93h136.5V143.62H100Z"/><path class="cls-3" d="M158.26,143.62v13.85h20a6.94,6.94,0,0,0,6.92-6.93v-6.92h-26.9Z"/><path class="cls-7" d="M73.1,91.69H100V42.53a13.85,13.85,0,0,1-8.31-2.76H21.76a6.94,6.94,0,0,0-6.92,6.92v45h26.9V87.21a15.72,15.72,0,0,1,9-14.18,8.92,8.92,0,0,1-2.3-6V62.57a9,9,0,1,1,17.92,0v4.48a8.92,8.92,0,0,1-2.3,6,15.72,15.72,0,0,1,9,14.18Z"/><path class="cls-5" d="M100,91.69H14.84v51.93h26.9v-4.48a15.73,15.73,0,0,1,9-14.19,8.88,8.88,0,0,1-2.3-6V114.5a9,9,0,1,1,17.92,0V119a8.88,8.88,0,0,1-2.3,6,15.73,15.73,0,0,1,9,14.19v4.48H100Z"/><path class="cls-4" d="M100,42.53V91.69h26.9V87.21a15.72,15.72,0,0,1,9-14.18,8.92,8.92,0,0,1-2.3-6V62.57a9,9,0,1,1,17.92,0v4.48a8.92,8.92,0,0,1-2.3,6,15.72,15.72,0,0,1,9,14.18v4.48h26.9v-45a6.94,6.94,0,0,0-6.92-6.93H108.31A13.77,13.77,0,0,1,100,42.53"/><path class="cls-8" d="M126.9,91.69H100v51.93h26.9v-4.48a15.73,15.73,0,0,1,9-14.19,8.88,8.88,0,0,1-2.3-6V114.5a9,9,0,1,1,17.92,0V119a8.88,8.88,0,0,1-2.3,6,15.73,15.73,0,0,1,9,14.19v4.48h26.9V91.69H126.9Z"/><polygon class="cls-2" points="82.47 157.47 117.54 157.47 124.4 185.16 75.6 185.16 82.47 157.47"/><path class="cls-9" d="M178.24,154H161.72v-6.92h20v3.46a3.46,3.46,0,0,1-3.46,3.46M120,181.7H80l5.16-20.77h29.63ZM18.3,150.54v-3.46H154.8V154h-133a3.47,3.47,0,0,1-3.46-3.46m0-103.85a3.47,3.47,0,0,1,3.46-3.46H90.63a17.4,17.4,0,0,0,5.91,2.42V88.23h-20v-1a19,19,0,0,0-7.7-15.33,12.33,12.33,0,0,0,1-4.83V62.57a12.42,12.42,0,0,0-24.84,0v4.48a12.33,12.33,0,0,0,1,4.83,19,19,0,0,0-7.7,15.33v1h-20ZM75.77,36.3V32.84a3.46,3.46,0,0,1,3.46-3.46h3.48a17.25,17.25,0,0,0,1.75,6.92H75.77M100,18.3A10.39,10.39,0,1,1,89.61,28.69,10.4,10.4,0,0,1,100,18.3m24.23,14.54V36.3h-8.69a17.09,17.09,0,0,0,1.75-6.92h3.48a3.46,3.46,0,0,1,3.46,3.46M181.7,46.69V88.23h-20v-1A19,19,0,0,0,154,71.88a12.32,12.32,0,0,0,1-4.83V62.57a12.42,12.42,0,1,0-24.84,0v4.48a12.33,12.33,0,0,0,1,4.83,19,19,0,0,0-7.7,15.33v1h-20V45.65a17.2,17.2,0,0,0,5.91-2.42h68.87a3.46,3.46,0,0,1,3.46,3.46M135.53,77.27a12.34,12.34,0,0,0,14.11,0,12.16,12.16,0,0,1,5.16,9.95v1H130.36v-1a12.31,12.31,0,0,1,5.17-9.94m12.55-10.22a5.5,5.5,0,0,1-11,0V62.57a5.5,5.5,0,1,1,11,0ZM50.36,77.27a12.36,12.36,0,0,0,14.12,0,12.16,12.16,0,0,1,5.16,9.95v1H45.2v-1a12.33,12.33,0,0,1,5.16-9.94M62.92,67.05a5.5,5.5,0,0,1-11,0V62.57a5.5,5.5,0,0,1,11,0ZM50.36,129.19a12.38,12.38,0,0,0,14.12,0,12.14,12.14,0,0,1,5.16,9.95v1H45.2v-1a12.35,12.35,0,0,1,5.16-9.95M62.92,119a5.5,5.5,0,0,1-11,0V114.5a5.5,5.5,0,0,1,11,0ZM154,123.81a12.36,12.36,0,0,0,1-4.83V114.5a12.42,12.42,0,1,0-24.84,0V119a12.37,12.37,0,0,0,1,4.83,19,19,0,0,0-7.7,15.33v1h-20V122.85a3.46,3.46,0,0,0-6.92,0v17.31h-20v-1a19,19,0,0,0-7.7-15.33,12.37,12.37,0,0,0,1-4.83V114.5a12.42,12.42,0,1,0-24.84,0V119a12.37,12.37,0,0,0,1,4.83,19,19,0,0,0-7.7,15.33v1h-20v-45H181.7v45h-20v-1A19,19,0,0,0,154,123.81m-18.5,5.38a12.37,12.37,0,0,0,14.11,0,12.14,12.14,0,0,1,5.16,9.95v1H130.36v-1a12.33,12.33,0,0,1,5.17-9.95M148.08,119a5.5,5.5,0,0,1-11,0V114.5a5.5,5.5,0,0,1,11,0ZM178.24,36.3H131.16V32.84a10.4,10.4,0,0,0-10.39-10.38h-4.63a17.3,17.3,0,0,0-32.28,0H79.23A10.4,10.4,0,0,0,68.84,32.84V36.3H21.76A10.4,10.4,0,0,0,11.38,46.69V150.54a10.4,10.4,0,0,0,10.38,10.39H78.05L72.9,181.7H68.84a3.46,3.46,0,0,0,0,6.92h62.32a3.46,3.46,0,0,0,0-6.92h-4L122,160.93h56.29a10.4,10.4,0,0,0,10.38-10.39V46.69A10.4,10.4,0,0,0,178.24,36.3"/><path class="cls-9" d="M100,32.15a3.47,3.47,0,0,0,0-6.93h0a3.47,3.47,0,0,0,0,6.93"/><path class="cls-9" d="M100,103.81a3.46,3.46,0,1,0,3.46,3.46h0a3.46,3.46,0,0,0-3.46-3.46"/></svg>