<svg id="Capa_1" data-name="Capa 1" xmlns="http://www.w3.org/2000/svg" viewBox="0 0 200 200"><defs><style>.cls-1{fill:#8e3f1d;}.cls-2{fill:#efdcb9;}.cls-3{fill:#e9cd49;}.cls-4{fill:#aac88d;}.cls-5{fill:#c1c5c4;}.cls-6{fill:#7eb06d;}.cls-7{fill:#5e1e7f;}.cls-8{fill:#061642;}.cls-9{fill:#c7b081;}</style></defs><path class="cls-1" d="M30.87,76v-12a51.1,51.1,0,0,1,102.2,0V79Z"/><path class="cls-2" d="M121.05,66.94a12,12,0,1,1-12,12,12,12,0,0,1,12-12"/><path class="cls-2" d="M42.89,66.94a12,12,0,1,1-12,12,12,12,0,0,1,12-12"/><path class="cls-2" d="M42.89,63.93H70c13.28,0,24-12.11,24-27a27.05,27.05,0,0,1,27.06,27.05V76a39.08,39.08,0,1,1-78.16,0Z"/><path class="cls-3" d="M139.08,127.05v60.12H24.86V127.05a12,12,0,0,1,12-12h90.18a12,12,0,0,1,12,12"/><rect class="cls-4" x="139.08" y="133.06" width="42.08" height="54.11"/><path class="cls-2" d="M187.18,175.15v6a6,6,0,0,1-6,6h-12v-18h12a6,6,0,0,1,6,6"/><path class="cls-5" d="M42.9,172.14a3,3,0,0,1-2.69-1.66L10.15,110.36a3,3,0,1,1,5.35-2.73l0,0,30.05,60.12a3,3,0,0,1-2.68,4.35"/><rect class="cls-6" x="97" y="133.06" width="42.08" height="54.11"/><path class="cls-2" d="M36.88,181.16v-6a6,6,0,0,1,6-6h12v18h-12a6,6,0,0,1-6-6"/><polygon class="cls-7" points="84.98 115.03 60.93 133.06 60.93 115.03 84.98 115.03"/><polygon class="cls-7" points="78.97 115.03 103.01 133.06 103.01 115.03 78.97 115.03"/><path class="cls-8" d="M154.11,148.09h12a3,3,0,1,0,0-6h-12a3,3,0,0,0,0,6"/><path class="cls-8" d="M169.14,154.11H151.48a3,3,0,1,0,0,6h17.66a3,3,0,1,0,0-6"/><path class="cls-9" d="M66.94,63.93a12,12,0,1,1-12,12,12,12,0,0,1,12-12"/><path class="cls-9" d="M97,63.93A12,12,0,1,1,85,76a12,12,0,0,1,12-12"/><path class="cls-8" d="M184.17,181.16a3,3,0,0,1-3,3h-9v-12h9a3,3,0,0,1,3,3Zm-18-12v15h-24V136.07h36.07v30.06h-9a3,3,0,0,0-3,3M100,136.07h36.07v48.09H100ZM42.9,184.16a3,3,0,0,1-3-3v-6a3,3,0,0,1,3-3h9v12Zm-15-38.36,10.71,21.43a9,9,0,0,0-4.7,7.92v6a8.77,8.77,0,0,0,.52,3H27.87Zm0-18.75a9,9,0,0,1,9-9h21v15a3,3,0,0,0,4.81,2.41L79,123.3v60.86h-21v-15a3,3,0,0,0-3-3H44.75L27.87,132.35ZM106,76a9,9,0,1,1-9-9,9,9,0,0,1,9,9M46,79h6.18A15,15,0,1,0,77.84,65.63c10.2-3.47,17.85-13.46,19-25.57A24.08,24.08,0,0,1,118,63.93v9h-6.31a15,15,0,1,0,0,6h6.19A36.07,36.07,0,0,1,46,79ZM33.88,79a9,9,0,0,1,6-8.5V76a42.23,42.23,0,0,0,1.72,11.93A9,9,0,0,1,33.88,79m33.06-12a9,9,0,1,1-9,9,9,9,0,0,1,9-9M52.21,73H45.9v-6h9a15,15,0,0,0-2.72,6M82,15.84a48.14,48.14,0,0,1,48.09,48.09v3a15,15,0,0,0-6-2.71v-.3A30.09,30.09,0,0,0,94,33.87a3,3,0,0,0-3,3c0,13.26-9.44,24-21,24H42.9a3,3,0,0,0-3,3v.3a15,15,0,0,0-6,2.71v-3A48.14,48.14,0,0,1,82,15.84m40.36,72A41.88,41.88,0,0,0,124.05,76V70.46a9,9,0,0,1-1.72,17.42M88,118h12v9Zm-24,0H76l-12,9Zm30.05,15v51.1H85V123.3l10,7.52a3,3,0,0,0-1,2.24m42.09-6v3H106V118h21a9,9,0,0,1,9,9m48.09,39.6V133.06a3,3,0,0,0-3-3H142.09v-3a15.06,15.06,0,0,0-15-15H103.63A42.42,42.42,0,0,0,120,94h1.06a15.05,15.05,0,0,0,15-15v-15a54.11,54.11,0,1,0-108.21,0V79a15,15,0,0,0,15,15H44a42.45,42.45,0,0,0,16.37,18H36.88a15.07,15.07,0,0,0-14.17,10l-7.18-14.38h0a3,3,0,1,0-5.37,2.69h0l11.7,23.41v53.4a3,3,0,0,0,3,3h156.3a9,9,0,0,0,9-9v-6a9,9,0,0,0-6-8.5"/></svg>