<svg xmlns="http://www.w3.org/2000/svg" xmlns:xlink="http://www.w3.org/1999/xlink" width="1319.996" height="506.832" viewBox="0 0 1319.996 506.832"><defs><clipPath id="a"><path d="M1520.927,1239.456H242.5c-11.48,0-20.787,8.4-20.787,18.772v469.288c0,10.367,9.307,18.772,20.787,18.772H1520.927c11.48,0,20.787-8.4,20.787-18.772V1258.228C1541.714,1247.856,1532.4,1239.456,1520.927,1239.456Z" transform="translate(-221.717 -1239.456)" fill="none"/></clipPath><clipPath id="b"><rect width="1350.368" height="508" fill="none"/></clipPath><filter id="c" x="-90.731" y="-9.592" width="1449.613" height="594.159" filterUnits="userSpaceOnUse"><feOffset input="SourceAlpha"/><feGaussianBlur result="d"/><feFlood/><feComposite operator="in" in2="d"/><feComposite in="SourceGraphic"/></filter></defs><g transform="translate(0 0)"><g transform="translate(0 0)" clip-path="url(#a)"><g transform="translate(-17.846 -1.169)"><rect width="1350.368" height="508" fill="#dade7f"/><g clip-path="url(#b)"><path d="M1654.367,1571.325s-178.706-117.516-633.976-34.092-693.544-26.714-729.711-244.251H160.905v437.727H1628.837Z" transform="translate(-255.715 -1159.837)" fill="#bac653"/><g transform="matrix(1, 0, 0, 1, 17.85, 1.17)" filter="url(#c)"><path d="M1631.644,1632.507s-130.113-92.537-517.4-27.959c-467.357,27.74-862.239-25.33-809.022-429.127h-122.4V1769.58H1632.443Z" transform="translate(-273.56 -1185.01)" fill="#88a242"/></g><path d="M1189.212,1305.51s-73.078,341.873,478.135,398.945c0,0-405.671,9.662-510.5-208.6Z" transform="translate(-1292.373 -1222.289)" fill="#bac653"/><g transform="translate(1286.607 209.596)"><path d="M262.193,1505.129c-15.8-36.983-50.528-65.442-86.124-82.36-2.354-1.119-4.284,1.079-3.845,3.333,6.464,33.163-13.082,65.336-2.2,98.513a84.957,84.957,0,0,0,57.079,54.87,3.04,3.04,0,0,0,.6.221c.145.037.287.052.432.087.119.032.235.075.355.106a2.959,2.959,0,0,0,.647.1c15.8,3.249,29.425-7.251,35.475-21.547C271.858,1541.326,269.324,1521.822,262.193,1505.129Z" transform="translate(-166.658 -1422.468)" fill="#648231"/><g transform="translate(9.023 5.132)"><path d="M258.683,1578.514c-22.008-17.2-23.812-46.358-28.654-71.8-5.636-29.614-18.368-54.773-37.925-77.685a.84.84,0,0,1,1.2-1.177c19.713,19.027,31.86,44.123,37.771,70.652,6.143,27.576,6.195,58.519,28.625,79.014.69.632-.314,1.542-1.013,1Z" transform="translate(-191.884 -1427.6)" fill="#566f29"/></g><g transform="translate(14.689 106.921)"><path d="M212.444,1529.405c14.43,3.587,25.161,16.214,40.564,16.35a1.292,1.292,0,0,1,.012,2.582c-15.785-.373-26.714-12.705-40.793-18.1a.431.431,0,0,1,.217-.833Z" transform="translate(-211.927 -1529.389)" fill="#566f29"/></g><g transform="translate(56.836 89.164)"><path d="M212.111,1511.951c-1.475,8.4-.579,14.624-5.859,21.777-4.138,5.6-9.421,11.439-15.889,14.273-1.416.62-2.615-1.507-1.192-2.095,6.284-2.595,11.345-8.14,15.466-13.417,5.09-6.518,5.092-13.092,6.975-20.669.081-.327.556-.192.5.131Z" transform="translate(-188.531 -1511.632)" fill="#566f29"/></g><g transform="translate(17.02 81.34)"><path d="M218.649,1504.472c4.037-1.317,7.562-.561,11.351,1.257,2.946,1.413,5.707,3.21,8.645,4.655,3.16,1.555,8.733,5.312,12.35,4.056.872-.3,1.281.961.583,1.421-3.017,1.99-6.46-.414-9.513-1.683-6.792-2.821-15.562-10.206-23.1-8.541a.6.6,0,0,1-.311-1.165Z" transform="translate(-218.22 -1503.808)" fill="#566f29"/></g><g transform="translate(47.413 56.817)"><path d="M221.534,1479.5c-2.6,11.8-8.614,30.019-20.053,35.975-1.175.612-2.205-1.179-1.021-1.8,11.076-5.767,16.11-23.574,20.759-34.308.08-.185.356-.051.315.129Z" transform="translate(-199.936 -1479.285)" fill="#566f29"/></g><g transform="translate(18.075 47.316)"><path d="M226.723,1469.785a27.894,27.894,0,0,1,9.406,2.227c2.633,1.092,10.617,7.155,13.309,6.034,1.1-.458,2.061,1.135.936,1.646-2.85,1.294-5.689-.872-8.2-2.2-5.107-2.705-9.712-5.89-15.577-6.687-.579-.079-.451-1.046.128-1.016Z" transform="translate(-226.219 -1469.784)" fill="#566f29"/></g><g transform="translate(40.52 29.313)"><path d="M228.372,1452.553c-3.942,8.058,2.956,19.349-3.294,26.36a.867.867,0,0,1-1.436-.831c1.44-5.245,1.538-9.6,1.453-15.022-.062-3.959.344-7.575,2.383-11.024a.517.517,0,0,1,.894.517Z" transform="translate(-223.613 -1451.781)" fill="#566f29"/></g></g><g transform="translate(1282.313 139.477)"><path d="M214.683,1354.318c-32.711,7.717-61.11,32.241-80.132,59.127-1.259,1.779.275,3.683,2.194,3.643,28.229-.577,51.923,20.119,80.8,15.9a71,71,0,0,0,53.343-39.146,2.524,2.524,0,0,0,.267-.46c.052-.115.084-.229.134-.344.044-.093.095-.183.138-.277a2.472,2.472,0,0,0,.173-.519c4.934-12.542-1.761-25.264-12.666-32.29C245.868,1351.539,229.448,1350.835,214.683,1354.318Z" transform="translate(-134.093 -1352.349)" fill="#6a8c36"/><g transform="translate(4.496 27.616)"><path d="M267.8,1380.1c-19.816,15.285-44.825,11.245-68.1,12.2-23.1.948-45.782,7.328-64.629,21.06-.63.458.032,1.6.725,1.187,22.473-13.27,45.811-20.072,71.887-20.2,20.944-.106,44.187,1.738,60.865-13.317a.594.594,0,0,0-.745-.924Z" transform="translate(-134.811 -1379.964)" fill="#4e711c"/></g><g transform="translate(89.053 39.667)"><path d="M163.389,1424.292c6.3-10.905,18.422-18.069,20.784-31.113.247-1.366-1.916-1.627-2.143-.257-2.1,12.678-14.427,19.631-19.264,31.023-.156.367.415.707.623.347Z" transform="translate(-162.739 -1392.015)" fill="#4e711c"/></g><g transform="translate(83.746 15.373)"><path d="M162.682,1368.14c5.545,2.628,10.712,3.01,15.221,7.728,4,4.189,8.386,9.713,9.575,15.43.264,1.269,2.282.96,1.992-.3-1.405-6.094-5.906-11.832-10.314-16.14-4.945-4.834-10.2-4.727-16.314-7.119a.216.216,0,0,0-.16.4Z" transform="translate(-162.555 -1367.722)" fill="#4e711c"/></g><g transform="translate(68.763 40.271)"><path d="M191.093,1418.4c-.284-6.257,6.471-11.837,9.7-16.76,1.609-2.453,4.681-5.638,3.368-8.647a.65.65,0,0,0-1.232.359c.412,2.52-3.044,6.643-4.411,8.581-1.524,2.162-3.208,4.171-4.85,6.239-2.489,3.132-4.164,6.285-3.573,10.378.094.654,1.024.484,1-.15Z" transform="translate(-189.979 -1392.62)" fill="#4e711c"/></g><g transform="translate(55.492 20.129)"><path d="M190.84,1372.737c4.441,2.894,8.973,5.674,13.191,8.893,4.606,3.516,10.384,7.4,12.1,13.161.317,1.06,1.892.351,1.578-.7-1.592-5.329-6.333-8.911-10.616-12.132a72.045,72.045,0,0,0-16.118-9.469c-.148-.06-.278.158-.138.249Z" transform="translate(-190.78 -1372.478)" fill="#4e711c"/></g><g transform="translate(40.468 41.739)"><path d="M221.921,1412.856c1.258-4.125,3.924-7.122,6.585-10.395,1.614-1.985,4.9-4.933,4.167-7.742-.251-.968-1.792-.77-1.565.235.4,1.788-2.128,4.056-3.14,5.271a50.606,50.606,0,0,0-3.265,4.311,23.423,23.423,0,0,0-3.611,8.109c-.1.474.687.678.829.211Z" transform="translate(-221.083 -1394.088)" fill="#4e711c"/></g><g transform="translate(29.419 35.72)"><path d="M221.953,1388.854c2.565,2.216,5.641,3.053,8.94,3.558,1.861.284,3.748.434,5.6.793,2.439.473,4.167,1.547,6.371,2.531.687.307,1.234-.569.826-1.119-4.565-6.17-15.336-2.135-21.22-6.458-.454-.333-.929.336-.513.695Z" transform="translate(-221.793 -1388.069)" fill="#4e711c"/></g></g><g transform="translate(1296.114 58.45)"><path d="M191.68,1366.309c-16.7-27.072-19.255-62.491-13.96-93.209.351-2.032,2.651-2.277,3.908-.966,18.484,19.3,48.189,21.335,64.668,43.5a67.195,67.195,0,0,1,9.436,61.905,2.45,2.45,0,0,1-.13.487c-.042.111-.1.209-.14.319-.034.092-.059.186-.094.278a2.359,2.359,0,0,1-.232.463c-5.1,11.69-18.1,15.709-30.1,13.1C210.666,1389.059,199.217,1378.529,191.68,1366.309Z" transform="translate(-175.244 -1271.322)" fill="#648231"/><g transform="translate(5.278 3.984)"><path d="M253.047,1387.187c-3.008-23.493-22.433-37.546-37.355-53.778-14.811-16.111-25.7-35.57-29.1-57.376-.114-.727,1.091-1.044,1.28-.307,6.134,23.926,17.178,44.108,34.522,61.665,13.93,14.1,30.7,28.44,31.769,49.678a.562.562,0,0,1-1.118.118Z" transform="translate(-186.586 -1275.306)" fill="#465b1f"/></g><g transform="translate(60.65 53.932)"><path d="M198.782,1325.635c-3.1,11.509.211,24.42-6.948,34.723-.75,1.079-2.371-.2-1.6-1.263,7.087-9.885,3.506-22.79,7.9-33.646.142-.349.752-.194.649.186Z" transform="translate(-190.028 -1325.254)" fill="#465b1f"/></g><g transform="translate(27.609 87.933)"><path d="M198.2,1359.269c5.468,1.958,9.178,5.164,15.353,5.031,5.483-.118,12.113-.876,16.738-3.9,1.026-.671,2.168.887,1.131,1.534-5.022,3.134-11.876,3.954-17.708,3.882-6.544-.082-9.984-3.671-15.675-6.171a.2.2,0,0,1,.161-.375Z" transform="translate(-197.922 -1359.255)" fill="#465b1f"/></g><g transform="translate(43.092 44.102)"><path d="M216.181,1316.294c-4.38,3.992-3.6,12.248-4.741,17.7-.567,2.718-.648,6.9-3.541,8.038a.616.616,0,0,1-.583-1.066c1.963-1.408,2.415-6.48,2.8-8.691.429-2.467.65-4.937.937-7.42.434-3.762,1.427-6.992,4.563-9.332.5-.374,1.009.363.565.767Z" transform="translate(-207.071 -1315.424)" fill="#465b1f"/></g><g transform="translate(11.883 65.897)"><path d="M214.83,1337.222c4.907,1.041,9.8,2.218,14.776,2.892,5.435.736,11.9,2.007,16.908-.69.922-.5,1.5,1.033.584,1.526-4.634,2.5-10.2,1.715-15.223,1a68.216,68.216,0,0,1-17.12-4.467.137.137,0,0,1,.075-.26Z" transform="translate(-214.677 -1337.219)" fill="#465b1f"/></g><g transform="translate(23.211 28.965)"><path d="M236.19,1300.859c-1.923,3.6-2.148,7.389-2.562,11.36-.251,2.408-.031,6.578-2.4,7.968-.817.478-1.713-.687-.888-1.206,1.468-.924,1.293-4.137,1.431-5.627a48.075,48.075,0,0,1,.706-5.069,22.171,22.171,0,0,1,3.017-7.84c.25-.386.914.006.7.414Z" transform="translate(-230.011 -1300.287)" fill="#465b1f"/></g><g transform="translate(5.011 37.725)"><path d="M235.442,1309.049c3.2.236,5.817,1.737,8.36,3.61,1.435,1.056,2.8,2.22,4.273,3.219,1.947,1.318,3.821,1.757,5.954,2.575a.687.687,0,0,1-.2,1.3c-7.185,1.066-11.682-8.847-18.513-9.9a.408.408,0,0,1,.123-.807Z" transform="translate(-234.983 -1309.047)" fill="#465b1f"/></g></g><g transform="translate(1241.344 -37.58)"><path d="M232.962,1192.9c-31.083,25.519-48.683,66.826-54.962,105.734-.415,2.574,2.235,3.811,4.276,2.759,30.028-15.488,66.386-5.728,95.191-25.464a84.955,84.955,0,0,0,36.7-70.155,3.034,3.034,0,0,0,.045-.636c-.005-.15-.03-.29-.037-.439,0-.124.006-.247,0-.37a2.9,2.9,0,0,0-.088-.649c-1.3-16.075-15.2-26.219-30.615-28.026C265.006,1173.486,246.992,1181.378,232.962,1192.9Z" transform="translate(-177.956 -1175.292)" fill="#5f7930"/><g transform="translate(4.525 14.918)"><path d="M309.63,1191.281c-10.354,25.943-37.84,35.836-60.91,47.606-26.853,13.7-47.442,32.964-63.965,58.153a.84.84,0,0,1-1.465-.819c12.749-24.251,33.442-42.937,57.256-56.036,24.754-13.617,54.446-22.328,67.844-49.6.413-.84,1.569-.13,1.24.693Z" transform="translate(-183.18 -1190.211)" fill="#465b1f"/></g><g transform="translate(100.767 42.776)"><path d="M205.564,1263.219c-.6-14.857,8.523-28.694,4.342-43.519a1.292,1.292,0,0,1,2.476-.734c4.06,15.258-4.721,29.2-5.958,44.228a.43.43,0,0,1-.86.025Z" transform="translate(-205.536 -1218.068)" fill="#465b1f"/></g><g transform="translate(65.546 28.288)"><path d="M207.671,1205.5c8.48-.935,14.2-3.537,22.547-.47,6.539,2.4,13.619,5.843,18.15,11.259.992,1.186-.716,2.932-1.678,1.731-4.25-5.306-10.99-8.614-17.209-11.093-7.682-3.062-13.994-1.223-21.795-.91-.337.013-.34-.481-.015-.517Z" transform="translate(-207.43 -1203.58)" fill="#465b1f"/></g><g transform="translate(73.932 57.768)"><path d="M236.869,1268.046c-2.394-3.507-2.656-7.1-1.971-11.249.533-3.224,1.485-6.378,2.05-9.6.608-3.47,2.655-9.872.436-12.992-.534-.752.565-1.5,1.2-.957,2.755,2.339,1.41,6.317,1.047,9.6-.807,7.31-5.442,17.8-1.733,24.573a.6.6,0,0,1-1.031.624Z" transform="translate(-234.57 -1233.061)" fill="#465b1f"/></g><g transform="translate(37.664 49.992)"><path d="M236.105,1225.533c12.055-.8,31.23-.132,40.149,9.182.917.957-.515,2.447-1.438,1.483-8.637-9.019-27.141-8.868-38.747-10.326-.2-.025-.149-.327.036-.339Z" transform="translate(-235.941 -1225.284)" fill="#465b1f"/></g><g transform="translate(41.916 75.585)"><path d="M268.3,1276.67a27.888,27.888,0,0,1-.495-9.653c.311-2.834,3.9-12.2,2.068-14.466-.747-.927.513-2.3,1.318-1.36,2.04,2.374.755,5.706.18,8.492-1.168,5.659-2.936,10.973-2.06,16.825.087.579-.877.727-1.011.162Z" transform="translate(-267.597 -1250.877)" fill="#465b1f"/></g><g transform="translate(17.97 75.368)"><path d="M269.581,1255.861c8.839,1.528,17.748-8.254,26.228-4.216a.867.867,0,0,1-.4,1.611c-5.438.086-9.651,1.212-14.828,2.81-3.784,1.168-7.369,1.79-11.251.8a.516.516,0,0,1,.247-1Z" transform="translate(-268.953 -1250.66)" fill="#465b1f"/></g></g><g transform="translate(1165.534 -69.461)"><path d="M310.785,1201.973c7.716,32.711,32.239,61.11,59.126,80.132,1.779,1.259,3.683-.275,3.643-2.194-.577-28.229,20.118-51.922,15.9-80.8a71,71,0,0,0-39.146-53.343,2.619,2.619,0,0,0-.46-.267c-.115-.051-.229-.084-.344-.134-.094-.043-.183-.095-.277-.138a2.462,2.462,0,0,0-.519-.173c-12.541-4.934-25.264,1.761-32.29,12.666C308,1170.788,307.3,1187.209,310.785,1201.973Z" transform="translate(-308.815 -1143.411)" fill="#6a8c36"/><g transform="translate(27.616 0.719)"><path d="M327.875,1145.082c15.285,19.816,11.245,44.825,12.2,68.1.948,23.1,7.328,45.783,21.06,64.629.458.63,1.6-.032,1.187-.725-13.27-22.473-20.072-45.811-20.2-71.887-.106-20.943,1.738-44.186-13.317-60.865a.594.594,0,0,0-.924.745Z" transform="translate(-327.742 -1144.129)" fill="#4e711c"/></g><g transform="translate(39.666 28.647)"><path d="M350.2,1192.861c-10.9-6.3-18.069-18.422-31.113-20.784-1.366-.247-1.627,1.916-.257,2.143,12.678,2.1,19.631,14.427,31.023,19.264.367.156.707-.415.347-.623Z" transform="translate(-317.928 -1172.057)" fill="#4e711c"/></g><g transform="translate(15.373 28.462)"><path d="M350.681,1198.689c2.628-5.545,3.01-10.712,7.728-15.221,4.189-4,9.713-8.386,15.43-9.575,1.269-.264.96-2.282-.3-1.992-6.094,1.405-11.832,5.906-16.14,10.314-4.834,4.945-4.727,10.2-7.119,16.314a.216.216,0,0,0,.4.16Z" transform="translate(-350.263 -1171.873)" fill="#4e711c"/></g><g transform="translate(40.272 55.886)"><path d="M349.187,1212.686c-6.256.284-11.836-6.471-16.76-9.7-2.452-1.61-5.638-4.681-8.647-3.369a.65.65,0,0,0,.359,1.232c2.52-.412,6.643,3.045,8.581,4.411,2.162,1.525,4.171,3.208,6.239,4.851,3.132,2.488,6.285,4.163,10.378,3.573.654-.095.483-1.025-.15-1Z" transform="translate(-323.41 -1199.297)" fill="#4e711c"/></g><g transform="translate(20.129 56.687)"><path d="M347.317,1227.011c2.895-4.44,5.674-8.972,8.893-13.191,3.516-4.606,7.4-10.383,13.161-12.1,1.06-.316.352-1.892-.7-1.578-5.329,1.592-8.911,6.333-12.132,10.616a72.069,72.069,0,0,0-9.469,16.118c-.06.148.159.278.249.138Z" transform="translate(-347.058 -1200.098)" fill="#4e711c"/></g><g transform="translate(41.739 86.99)"><path d="M348.021,1241.257c-4.125-1.258-7.121-3.924-10.395-6.585-1.985-1.614-4.932-4.9-7.742-4.167-.968.252-.769,1.792.235,1.565,1.788-.4,4.056,2.129,5.271,3.14a50.434,50.434,0,0,0,4.311,3.265,23.387,23.387,0,0,0,8.109,3.611c.474.1.678-.686.211-.829Z" transform="translate(-329.253 -1230.401)" fill="#4e711c"/></g><g transform="translate(35.72 87.7)"><path d="M347.358,1252.984c2.216-2.564,3.053-5.641,3.558-8.939.285-1.861.434-3.748.793-5.6.473-2.439,1.546-4.167,2.531-6.37.307-.688-.568-1.235-1.119-.827-6.17,4.565-2.135,15.336-6.458,21.221-.332.453.336.928.695.512Z" transform="translate(-346.573 -1231.111)" fill="#4e711c"/></g></g><g transform="translate(1040.258 -81.989)"><path d="M436.06,1189.446c7.716,32.71,32.24,61.109,59.127,80.132,1.778,1.258,3.682-.276,3.643-2.195-.578-28.229,20.118-51.922,15.9-80.8a71,71,0,0,0-39.146-53.343,2.525,2.525,0,0,0-.46-.267c-.114-.052-.229-.085-.343-.134-.094-.044-.184-.095-.277-.138a2.476,2.476,0,0,0-.52-.173c-12.541-4.935-25.263,1.761-32.29,12.666C433.28,1158.26,432.577,1174.681,436.06,1189.446Z" transform="translate(-434.09 -1130.883)" fill="#6a8c36"/><g transform="translate(27.616 0.719)"><path d="M453.151,1132.554c15.285,19.816,11.245,44.826,12.2,68.1.947,23.1,7.327,45.783,21.059,64.63.459.629,1.6-.033,1.187-.725-13.27-22.473-20.072-45.812-20.2-71.887-.106-20.944,1.738-44.187-13.317-60.866a.594.594,0,0,0-.924.745Z" transform="translate(-453.018 -1131.602)" fill="#4e711c"/></g><g transform="translate(39.666 28.647)"><path d="M475.48,1180.333c-10.9-6.3-18.068-18.421-31.113-20.783-1.366-.248-1.626,1.916-.257,2.143,12.678,2.1,19.631,14.427,31.023,19.264.367.155.707-.416.347-.624Z" transform="translate(-443.204 -1159.53)" fill="#4e711c"/></g><g transform="translate(15.373 28.462)"><path d="M475.957,1186.161c2.628-5.545,3.011-10.711,7.728-15.221,4.189-4,9.713-8.385,15.431-9.575,1.268-.264.959-2.282-.3-1.991-6.094,1.4-11.832,5.906-16.14,10.313-4.833,4.946-4.727,10.2-7.119,16.314a.216.216,0,0,0,.4.16Z" transform="translate(-475.539 -1159.345)" fill="#4e711c"/></g><g transform="translate(40.271 55.886)"><path d="M474.463,1200.159c-6.256.284-11.836-6.472-16.76-9.7-2.452-1.61-5.638-4.681-8.647-3.368a.65.65,0,0,0,.36,1.231c2.519-.411,6.643,3.045,8.58,4.412,2.162,1.524,4.171,3.207,6.239,4.85,3.132,2.489,6.285,4.164,10.378,3.573.654-.094.484-1.024-.15-.995Z" transform="translate(-448.685 -1186.77)" fill="#4e711c"/></g><g transform="translate(20.128 56.687)"><path d="M472.594,1214.484c2.894-4.441,5.673-8.973,8.893-13.191,3.515-4.606,7.4-10.384,13.161-12.1,1.059-.316.351-1.892-.7-1.577-5.33,1.592-8.912,6.333-12.132,10.615a72.035,72.035,0,0,0-9.47,16.118c-.06.148.159.279.25.139Z" transform="translate(-472.333 -1187.571)" fill="#4e711c"/></g><g transform="translate(41.739 86.99)"><path d="M473.3,1228.73c-4.125-1.258-7.121-3.924-10.394-6.586-1.985-1.613-4.933-4.9-7.743-4.166-.968.251-.769,1.792.235,1.564,1.788-.4,4.056,2.129,5.271,3.141a50.812,50.812,0,0,0,4.311,3.264,23.407,23.407,0,0,0,8.109,3.612c.474.1.679-.687.211-.829Z" transform="translate(-454.528 -1217.874)" fill="#4e711c"/></g><g transform="translate(35.72 87.701)"><path d="M472.633,1240.457c2.216-2.565,3.054-5.642,3.558-8.94.285-1.861.435-3.748.793-5.6.473-2.44,1.547-4.167,2.531-6.371.308-.687-.568-1.234-1.119-.826-6.17,4.565-2.135,15.335-6.457,21.22-.333.454.335.929.694.513Z" transform="translate(-471.849 -1218.584)" fill="#4e711c"/></g></g><g transform="translate(1087.639 -15.782)"><path d="M441.284,1264.854c-27.072,16.7-62.491,19.255-93.209,13.96-2.032-.351-2.277-2.652-.966-3.908,19.3-18.485,21.335-48.189,43.495-64.668a67.192,67.192,0,0,1,61.905-9.436,2.425,2.425,0,0,1,.486.13c.112.042.211.1.32.14.092.034.186.059.278.093a2.416,2.416,0,0,1,.463.233c11.69,5.1,15.709,18.1,13.1,30.1C464.034,1245.868,453.5,1257.317,441.284,1264.854Z" transform="translate(-346.297 -1197.09)" fill="#5f7930"/><g transform="translate(3.984 11.342)"><path d="M463.45,1209.55c-23.493,3.008-37.546,22.434-53.778,37.356-16.111,14.811-35.57,25.7-57.375,29.1-.729.114-1.045-1.091-.308-1.28,23.926-6.134,44.108-17.179,61.665-34.522,14.1-13.93,28.44-30.7,49.678-31.769a.562.562,0,0,1,.118,1.117Z" transform="translate(-351.569 -1208.432)" fill="#465b1f"/></g><g transform="translate(53.932 14.784)"><path d="M378.854,1211.885c11.509,3.1,24.42-.21,34.723,6.949,1.079.75-.2,2.371-1.264,1.6-9.884-7.087-22.788-3.507-33.645-7.9-.349-.142-.194-.752.186-.65Z" transform="translate(-378.473 -1211.874)" fill="#465b1f"/></g><g transform="translate(87.933 22.678)"><path d="M373.436,1253.4c1.959-5.468,5.164-9.178,5.031-15.353-.118-5.483-.876-12.113-3.9-16.738-.671-1.027.887-2.168,1.535-1.131,3.133,5.022,3.953,11.875,3.881,17.708-.082,6.544-3.672,9.984-6.171,15.675a.2.2,0,0,1-.375-.161Z" transform="translate(-373.422 -1219.768)" fill="#465b1f"/></g><g transform="translate(44.102 31.828)"><path d="M398.032,1229.088c3.993,4.38,12.248,3.6,17.7,4.741,2.718.567,6.9.647,8.038,3.541a.616.616,0,0,1-1.066.582c-1.408-1.963-6.481-2.414-8.691-2.8-2.467-.429-4.938-.65-7.421-.937-3.761-.434-6.991-1.427-9.331-4.563-.374-.5.363-1.009.767-.565Z" transform="translate(-397.162 -1228.918)" fill="#465b1f"/></g><g transform="translate(65.897 39.433)"><path d="M396.588,1269.253c1.041-4.908,2.218-9.8,2.892-14.776.736-5.435,2.007-11.9-.69-16.908-.5-.922,1.033-1.5,1.526-.584,2.5,4.634,1.715,10.2,1,15.223a68.153,68.153,0,0,1-4.467,17.119.137.137,0,0,1-.26-.074Z" transform="translate(-396.585 -1236.523)" fill="#465b1f"/></g><g transform="translate(28.964 54.767)"><path d="M419.513,1251.9c3.6,1.923,7.389,2.148,11.36,2.562,2.409.251,6.578.031,7.968,2.4.479.817-.687,1.713-1.206.888-.924-1.468-4.137-1.294-5.627-1.431a48.065,48.065,0,0,1-5.069-.706,22.164,22.164,0,0,1-7.841-3.018c-.385-.249.007-.913.415-.7Z" transform="translate(-418.941 -1251.857)" fill="#465b1f"/></g><g transform="translate(37.725 59.739)"><path d="M419.407,1275.82c.237-3.2,1.738-5.817,3.611-8.361,1.056-1.434,2.22-2.8,3.219-4.272,1.317-1.947,1.757-3.822,2.575-5.954a.686.686,0,0,1,1.3.2c1.067,7.185-8.846,11.682-9.9,18.513a.409.409,0,0,1-.808-.123Z" transform="translate(-419.406 -1256.829)" fill="#465b1f"/></g></g><path d="M593.108,1739.8s-155.55-135.715-442.641-78.3c0,0,263.079-36.539,422.806,120.056Z" transform="translate(815.982 -1238.873)" fill="#bac653" opacity="0.3"/></g><g transform="translate(888.934 32.187)" opacity="0.2"><path d="M652.614,1288.211" transform="translate(-634.604 -1271.059)" fill="#fff"/><path d="M652.613,1305.363c-23.993,0-24.033-34.3,0-34.3,23.994,0,24.034,34.3,0,34.3Z" transform="translate(-634.604 -1271.059)" fill="#fff"/></g><g transform="translate(1261.469 294.815)" opacity="0.2"><path d="M286.182,1545.026" transform="translate(-274.275 -1533.687)" fill="#fff"/><g transform="translate(0)"><path d="M286.182,1556.365c-15.862,0-15.889-22.678,0-22.678,15.862,0,15.888,22.678,0,22.678Z" transform="translate(-274.276 -1533.687)" fill="#fff"/></g></g><g transform="translate(1236.414 103.77)" opacity="0.2"><path d="M311.237,1353.981" transform="translate(-299.33 -1342.642)" fill="#fff"/><g transform="translate(0)"><path d="M311.237,1365.32c-15.862,0-15.889-22.678,0-22.678,15.862,0,15.888,22.678,0,22.678Z" transform="translate(-299.331 -1342.642)" fill="#fff"/></g></g><g transform="translate(882.51 38)" opacity="0.2"><path d="M665.141,1288.211" transform="translate(-653.234 -1276.872)" fill="#fff"/><g transform="translate(0)"><path d="M665.142,1299.55c-15.862,0-15.889-22.678,0-22.678,15.862,0,15.888,22.678,0,22.678Z" transform="translate(-653.235 -1276.872)" fill="#fff"/></g></g><g transform="translate(284.319 282.287)" opacity="0.2"><path d="M1263.333,1532.5" transform="translate(-1251.427 -1521.159)" fill="#fff"/><g transform="translate(0)"><path d="M1263.332,1543.838c-15.862,0-15.888-22.679,0-22.679,15.862,0,15.888,22.679,0,22.679Z" transform="translate(-1251.426 -1521.159)" fill="#fff"/></g></g><g transform="translate(672.673 269.76)" opacity="0.2"><path d="M874.978,1519.971" transform="translate(-863.071 -1508.632)" fill="#fff"/><g transform="translate(0)"><path d="M874.978,1531.31c-15.862,0-15.889-22.678,0-22.678,15.862,0,15.888,22.678,0,22.678Z" transform="translate(-863.072 -1508.632)" fill="#fff"/></g></g><g transform="translate(284.319 53.659)" opacity="0.2"><path d="M1263.333,1303.871" transform="translate(-1251.427 -1292.531)" fill="#fff"/><g transform="translate(0)"><path d="M1263.332,1315.21c-15.862,0-15.888-22.679,0-22.679,15.862,0,15.888,22.679,0,22.679Z" transform="translate(-1251.426 -1292.531)" fill="#fff"/></g></g></g></g></g></svg>