<svg id="Capa_1" data-name="Capa 1" xmlns="http://www.w3.org/2000/svg" viewBox="0 0 200 200"><defs><style>.cls-1{fill:#efdcb9;}.cls-2{fill:#c7b081;}.cls-3{fill:#7eb06d;}.cls-4{fill:#8e3f1d;}.cls-5{fill:#5e1e7f;}.cls-6{fill:#c5b5d5;}.cls-7{fill:#cdcdca;}.cls-8{fill:#d5d4d2;}.cls-9{fill:#8e7aaf;}.cls-10{fill:#061642;}</style></defs><path class="cls-1" d="M158.24,100v18.39H121.46V100a6.13,6.13,0,0,0,6.13-6.12h0V87.74h24.52v6.13a6.11,6.11,0,0,0,6.11,6.13Z"/><path class="cls-2" d="M152.59,96.26a29.16,29.16,0,0,1-26.17,1.21,6.14,6.14,0,0,0,1.17-3.6V87.74h24.52v6.13a6,6,0,0,0,.48,2.39"/><path class="cls-3" d="M95.38,111.56l-7.64,19.09h24.52v46h55.17v-46h21.46V118.39A18.39,18.39,0,0,0,170.5,100H158.24l-3.44,4.58a19.19,19.19,0,0,1-32.52-2.93l-.82-1.65h-9a18.38,18.38,0,0,0-17.07,11.56"/><polygon class="cls-1" points="93.87 176.63 69.35 176.63 87.74 130.65 112.26 130.65 93.87 176.63"/><path class="cls-2" d="M167.43,69.35H161.3V51h6.13a9.2,9.2,0,1,1,0,18.39"/><path class="cls-2" d="M109.2,51h6.13V69.35H109.2a9.2,9.2,0,1,1,0-18.39"/><path class="cls-1" d="M127.59,26.44H149a18.39,18.39,0,0,1,18.39,18.39V64.75a29.12,29.12,0,1,1-58.23,0V44.83a18.39,18.39,0,0,1,18.39-18.39"/><path class="cls-4" d="M167.43,51l-6.76-2.26A17,17,0,0,1,149,32.57V17.24a18.39,18.39,0,0,1,18.39,18.39Z"/><path class="cls-4" d="M149,17.24V32.57A72.91,72.91,0,0,1,129.7,41.7a73.24,73.24,0,0,1-21.15,3.13h-5.49v-9.2a24.52,24.52,0,0,1,24.53-24.52h11.53A11.09,11.09,0,0,1,149,17.24"/><rect class="cls-5" x="11.11" y="176.63" width="177.78" height="12.26"/><path class="cls-6" d="M20.31,78.54h85.82a9.19,9.19,0,0,1,9.19,9.2v55.17a9.19,9.19,0,0,1-9.19,9.2H20.31a9.2,9.2,0,0,1-9.2-9.2V87.74a9.2,9.2,0,0,1,9.2-9.2"/><polygon class="cls-7" points="63.22 152.11 75.48 152.11 72.41 133.72 63.22 133.72 63.22 152.11"/><rect class="cls-8" x="44.83" y="164.37" width="36.78" height="12.26"/><polygon class="cls-9" points="63.22 176.63 32.57 176.63 50.96 133.72 72.41 133.72 63.22 176.63"/><rect class="cls-8" x="93.87" y="164.37" width="36.78" height="12.26"/><path class="cls-1" d="M167.43,130.65v24.52H127.59a12.26,12.26,0,0,0-12.27,12.26v6.13a3.08,3.08,0,0,0,3.07,3.07h49a21.46,21.46,0,0,0,21.46-21.46V130.65Z"/><path class="cls-10" d="M32.57,96.93H20.31V90.8H32.57Zm73.56,0H93.87V90.8h12.26Zm-18.39,0H75.48V90.8H87.74Zm-18.39,0H57.09V90.8H69.35ZM51,96.93H38.7V90.8H51ZM151.87,118.7l2.67,5.51A33.68,33.68,0,0,1,123,123.07l3.06-5.31a27.61,27.61,0,0,0,25.82.94Zm33.95,8.89H170.5v-9.2h-6.13v33.72H127.59a15.29,15.29,0,0,0-12.26,6.14V151a12.27,12.27,0,0,0,3.06-8.1V103.07h1.17a22.25,22.25,0,0,0,37.69,3.35l2.52-3.35H170.5a15.33,15.33,0,0,1,15.32,15.32Zm0,58.23H14.18v-6.13H185.82ZM53,136.78H68.62l-7.88,36.78H37.21Zm25.57,30.65v6.13H67l1.31-6.13ZM71,155.17h3.68l-2.45,6.13H69.64Zm10.28,0H99.15L96.7,161.3H93.87a3.08,3.08,0,0,0-3.07,3.07v9.19H84.67v-9.19a3.07,3.07,0,0,0-3.06-3.07H78.78Zm24.52,0h.38a12.31,12.31,0,0,0,3.07-.39v6.52h-5.9Zm6.51,18.39H96.93v-6.13h15.33ZM130.41,96a32.1,32.1,0,0,0,18.71-.89,9.19,9.19,0,0,0,2.62,5.32,9.47,9.47,0,0,0,1.48,1.2l-.87,1.16a16.08,16.08,0,0,1-26.39-.86A9.22,9.22,0,0,0,130.41,96M161.64,45.8a13.94,13.94,0,0,1-9.53-13.23v-12a15.36,15.36,0,0,1,12.26,15V46.71ZM146,30.9a69.61,69.61,0,0,1-37.43,10.86h-2.42V38.35c26.24-3.44,35.49-12.42,35.88-12.81l-4.31-4.35a29.62,29.62,0,0,1-7.63,4.59c-4.53,2.06-12.18,4.74-23.65,6.34a21.21,21.21,0,0,1,1.8-5.71c11.47-.33,17.41-3.23,17.67-3.36l-2.72-5.49A34.93,34.93,0,0,1,113,19.94a21.37,21.37,0,0,1,14.62-5.76h11.53A8,8,0,0,1,146,18ZM103.07,60.15a6.08,6.08,0,0,1,1.79-4.33,6.29,6.29,0,0,1,1.27-1v9.9c0,.24,0,.47,0,.71a6.11,6.11,0,0,1-3.07-5.31m67.43,4.6v-9.9a6.13,6.13,0,0,1,1.27,9.64,6.46,6.46,0,0,1-1.29,1c0-.24,0-.48,0-.72m0,32.18H158.24a3.06,3.06,0,0,1-3.07-3.05h0V92.15a32.24,32.24,0,0,0,14.44-19.93,12.26,12.26,0,0,0,.89-23.94V35.63a21.48,21.48,0,0,0-19.66-21.37,14,14,0,0,0-11.72-6.21H127.59A27.62,27.62,0,0,0,100,35.63v9.2a3.06,3.06,0,0,0,3.07,3.06h3.06v.39A12.26,12.26,0,0,0,107,72.21c.08.34.17.67.26,1l5.91-1.61a26.48,26.48,0,0,1-.91-6.86v-17a75.79,75.79,0,0,0,34.38-10.13A20,20,0,0,0,159.7,51.61l4.67,1.56V64.75A26.07,26.07,0,0,1,123.23,86l-3.55,5a31.77,31.77,0,0,0,4.84,2.84v0a3.06,3.06,0,0,1-3.07,3.06h-3.06V87.74a12.27,12.27,0,0,0-12.26-12.26H20.31A12.27,12.27,0,0,0,8.05,87.74v9.19h6.13V87.74a6.13,6.13,0,0,1,6.13-6.13h85.82a6.14,6.14,0,0,1,6.13,6.13v55.17a6.13,6.13,0,0,1-6.13,6.13H72.26l3.15-14.68a3.06,3.06,0,0,0-2.35-3.64,2.81,2.81,0,0,0-.65-.07H51a3.06,3.06,0,0,0-2.82,1.86L41.06,149H20.31a6.12,6.12,0,0,1-6.13-6.13V103.07H8.05v39.84a12.27,12.27,0,0,0,12.26,12.26H38.43l-7.88,18.39H11.11a3.06,3.06,0,0,0-3.06,3.07v12.26A3.06,3.06,0,0,0,11.11,192H188.89a3.06,3.06,0,0,0,3.06-3.06V176.63a3.06,3.06,0,0,0-3.06-3.07h-5.26A24.45,24.45,0,0,0,192,155.17v-3.06h-6.13v3.06a18.41,18.41,0,0,1-18.39,18.39h-49v-6.13a9.21,9.21,0,0,1,9.2-9.19h39.84a3.07,3.07,0,0,0,3.07-3.07V133.72h15.32V146H192V118.39A21.49,21.49,0,0,0,170.5,96.93"/></svg>